<svg xmlns="http://www.w3.org/2000/svg" version="1.1" xmlns:xlink="http://www.w3.org/1999/xlink" xmlns:svgjs="http://svgjs.com/svgjs" width="1440" height="702" preserveAspectRatio="none" viewBox="0 0 1440 702"><g mask="url(&quot;#SvgjsMask1170&quot;)" fill="none"><rect width="1440" height="702" x="0" y="0" fill="url(#SvgjsLinearGradient1171)"></rect><path d="M0 -47L40.7 -23.5L40.7 23.5L0 47L-40.7 23.5L-40.7 -23.5zM40.7 23.5L81.41 47L81.41 94L40.7 117.5L0 94L0 47zM0 94L40.7 117.5L40.7 164.5L0 188L-40.7 164.5L-40.7 117.5zM40.7 164.5L81.41 188L81.41 235L40.7 258.5L0 235L0 188zM0 235L40.7 258.5L40.7 305.5L0 329L-40.7 305.5L-40.7 258.5zM40.7 305.5L81.41 329L81.41 376L40.7 399.5L0 376L0 329zM0 376L40.7 399.5L40.7 446.5L0 470L-40.7 446.5L-40.7 399.5zM40.7 446.5L81.41 470L81.41 517L40.7 540.5L0 517L0 470zM0 517L40.7 540.5L40.7 587.5L0 611L-40.7 587.5L-40.7 540.5zM40.7 587.5L81.41 611L81.41 658L40.7 681.5L0 658L0 611zM0 658L40.7 681.5L40.7 728.5L0 752L-40.7 728.5L-40.7 681.5zM81.41 -47L122.11 -23.5L122.11 23.5L81.41 47L40.7 23.5L40.7 -23.5zM122.11 23.5L162.82 47L162.82 94L122.11 117.5L81.41 94L81.41 47zM81.41 94L122.11 117.5L122.11 164.5L81.41 188L40.7 164.5L40.7 117.5zM122.11 164.5L162.82 188L162.82 235L122.11 258.5L81.41 235L81.41 188zM81.41 235L122.11 258.5L122.11 305.5L81.41 329L40.7 305.5L40.7 258.5zM122.11 305.5L162.82 329L162.82 376L122.11 399.5L81.41 376L81.41 329zM81.41 376L122.11 399.5L122.11 446.5L81.41 470L40.7 446.5L40.7 399.5zM122.11 446.5L162.82 470L162.82 517L122.11 540.5L81.41 517L81.41 470zM81.41 517L122.11 540.5L122.11 587.5L81.41 611L40.7 587.5L40.7 540.5zM122.11 587.5L162.82 611L162.82 658L122.11 681.5L81.41 658L81.41 611zM81.41 658L122.11 681.5L122.11 728.5L81.41 752L40.7 728.5L40.7 681.5zM162.82 -47L203.52 -23.5L203.52 23.5L162.82 47L122.11 23.5L122.11 -23.5zM203.52 23.5L244.23 47L244.23 94L203.52 117.5L162.82 94L162.82 47zM162.82 94L203.52 117.5L203.52 164.5L162.82 188L122.11 164.5L122.11 117.5zM203.52 164.5L244.23 188L244.23 235L203.52 258.5L162.82 235L162.82 188zM162.82 235L203.52 258.5L203.52 305.5L162.82 329L122.11 305.5L122.11 258.5zM203.52 305.5L244.23 329L244.23 376L203.52 399.5L162.82 376L162.82 329zM162.82 376L203.52 399.5L203.52 446.5L162.82 470L122.11 446.5L122.11 399.5zM203.52 446.5L244.23 470L244.23 517L203.52 540.5L162.82 517L162.82 470zM162.82 517L203.52 540.5L203.52 587.5L162.82 611L122.11 587.5L122.11 540.5zM203.52 587.5L244.23 611L244.23 658L203.52 681.5L162.82 658L162.82 611zM162.82 658L203.52 681.5L203.52 728.5L162.82 752L122.11 728.5L122.11 681.5zM244.23 -47L284.93 -23.5L284.93 23.5L244.23 47L203.52 23.5L203.52 -23.5zM284.93 23.5L325.63 47L325.63 94L284.93 117.5L244.23 94L244.23 47zM244.23 94L284.93 117.5L284.93 164.5L244.23 188L203.52 164.5L203.52 117.5zM284.93 164.5L325.63 188L325.63 235L284.93 258.5L244.23 235L244.23 188zM244.23 235L284.93 258.5L284.93 305.5L244.23 329L203.52 305.5L203.52 258.5zM284.93 305.5L325.63 329L325.63 376L284.93 399.5L244.23 376L244.23 329zM244.23 376L284.93 399.5L284.93 446.5L244.23 470L203.52 446.5L203.52 399.5zM284.93 446.5L325.63 470L325.63 517L284.93 540.5L244.23 517L244.23 470zM244.23 517L284.93 540.5L284.93 587.5L244.23 611L203.52 587.5L203.52 540.5zM284.93 587.5L325.63 611L325.63 658L284.93 681.5L244.23 658L244.23 611zM244.23 658L284.93 681.5L284.93 728.5L244.23 752L203.52 728.5L203.52 681.5zM325.63 -47L366.34 -23.5L366.34 23.5L325.63 47L284.93 23.5L284.93 -23.5zM366.34 23.5L407.04 47L407.04 94L366.34 117.5L325.63 94L325.63 47zM325.63 94L366.34 117.5L366.34 164.5L325.63 188L284.93 164.5L284.93 117.5zM366.34 164.5L407.04 188L407.04 235L366.34 258.5L325.63 235L325.63 188zM325.63 235L366.34 258.5L366.34 305.5L325.63 329L284.93 305.5L284.93 258.5zM366.34 305.5L407.04 329L407.04 376L366.34 399.5L325.63 376L325.63 329zM325.63 376L366.34 399.5L366.34 446.5L325.63 470L284.93 446.5L284.93 399.5zM366.34 446.5L407.04 470L407.04 517L366.34 540.5L325.63 517L325.63 470zM325.63 517L366.34 540.5L366.34 587.5L325.63 611L284.93 587.5L284.93 540.5zM366.34 587.5L407.04 611L407.04 658L366.34 681.5L325.63 658L325.63 611zM325.63 658L366.34 681.5L366.34 728.5L325.63 752L284.93 728.5L284.93 681.5zM407.04 -47L447.75 -23.5L447.75 23.5L407.04 47L366.34 23.5L366.34 -23.5zM447.75 23.5L488.45 47L488.45 94L447.75 117.5L407.04 94L407.04 47zM407.04 94L447.75 117.5L447.75 164.5L407.04 188L366.34 164.5L366.34 117.5zM447.75 164.5L488.45 188L488.45 235L447.75 258.5L407.04 235L407.04 188zM407.04 235L447.75 258.5L447.75 305.5L407.04 329L366.34 305.5L366.34 258.5zM447.75 305.5L488.45 329L488.45 376L447.75 399.5L407.04 376L407.04 329zM407.04 376L447.75 399.5L447.75 446.5L407.04 470L366.34 446.5L366.34 399.5zM447.75 446.5L488.45 470L488.45 517L447.75 540.5L407.04 517L407.04 470zM407.04 517L447.75 540.5L447.75 587.5L407.04 611L366.34 587.5L366.34 540.5zM447.75 587.5L488.45 611L488.45 658L447.75 681.5L407.04 658L407.04 611zM407.04 658L447.75 681.5L447.75 728.5L407.04 752L366.34 728.5L366.34 681.5zM488.45 -47L529.16 -23.5L529.16 23.5L488.45 47L447.75 23.5L447.75 -23.5zM529.16 23.5L569.86 47L569.86 94L529.16 117.5L488.45 94L488.45 47zM488.45 94L529.16 117.5L529.16 164.5L488.45 188L447.75 164.5L447.75 117.5zM529.16 164.5L569.86 188L569.86 235L529.16 258.5L488.45 235L488.45 188zM488.45 235L529.16 258.5L529.16 305.5L488.45 329L447.75 305.5L447.75 258.5zM529.16 305.5L569.86 329L569.86 376L529.16 399.5L488.45 376L488.45 329zM488.45 376L529.16 399.5L529.16 446.5L488.45 470L447.75 446.5L447.75 399.5zM529.16 446.5L569.86 470L569.86 517L529.16 540.5L488.45 517L488.45 470zM488.45 517L529.16 540.5L529.16 587.5L488.45 611L447.75 587.5L447.75 540.5zM529.16 587.5L569.86 611L569.86 658L529.16 681.5L488.45 658L488.45 611zM488.45 658L529.16 681.5L529.16 728.5L488.45 752L447.75 728.5L447.75 681.5zM569.86 -47L610.57 -23.5L610.57 23.5L569.86 47L529.16 23.5L529.16 -23.5zM610.57 23.5L651.27 47L651.27 94L610.57 117.5L569.86 94L569.86 47zM569.86 94L610.57 117.5L610.57 164.5L569.86 188L529.16 164.5L529.16 117.5zM610.57 164.5L651.27 188L651.27 235L610.57 258.5L569.86 235L569.86 188zM569.86 235L610.57 258.5L610.57 305.5L569.86 329L529.16 305.5L529.16 258.5zM610.57 305.5L651.27 329L651.27 376L610.57 399.5L569.86 376L569.86 329zM569.86 376L610.57 399.5L610.57 446.5L569.86 470L529.16 446.5L529.16 399.5zM610.57 446.5L651.27 470L651.27 517L610.57 540.5L569.86 517L569.86 470zM569.86 517L610.57 540.5L610.57 587.5L569.86 611L529.16 587.5L529.16 540.5zM610.57 587.5L651.27 611L651.27 658L610.57 681.5L569.86 658L569.86 611zM569.86 658L610.57 681.5L610.57 728.5L569.86 752L529.16 728.5L529.16 681.5zM651.27 -47L691.97 -23.5L691.97 23.5L651.27 47L610.57 23.5L610.57 -23.5zM691.97 23.5L732.68 47L732.68 94L691.97 117.5L651.27 94L651.27 47zM651.27 94L691.97 117.5L691.97 164.5L651.27 188L610.57 164.5L610.57 117.5zM691.97 164.5L732.68 188L732.68 235L691.97 258.5L651.27 235L651.27 188zM651.27 235L691.97 258.5L691.97 305.5L651.27 329L610.57 305.5L610.57 258.5zM691.97 305.5L732.68 329L732.68 376L691.97 399.5L651.27 376L651.27 329zM651.27 376L691.97 399.5L691.97 446.5L651.27 470L610.57 446.5L610.57 399.5zM691.97 446.5L732.68 470L732.68 517L691.97 540.5L651.27 517L651.27 470zM651.27 517L691.97 540.5L691.97 587.5L651.27 611L610.57 587.5L610.57 540.5zM691.97 587.5L732.68 611L732.68 658L691.97 681.5L651.27 658L651.27 611zM651.27 658L691.97 681.5L691.97 728.5L651.27 752L610.57 728.5L610.57 681.5zM732.68 -47L773.38 -23.5L773.38 23.5L732.68 47L691.97 23.5L691.97 -23.5zM773.38 23.5L814.09 47L814.09 94L773.38 117.5L732.68 94L732.68 47zM732.68 94L773.38 117.5L773.38 164.5L732.68 188L691.97 164.5L691.97 117.5zM773.38 164.5L814.09 188L814.09 235L773.38 258.5L732.68 235L732.68 188zM732.68 235L773.38 258.5L773.38 305.5L732.68 329L691.97 305.5L691.97 258.5zM773.38 305.5L814.09 329L814.09 376L773.38 399.5L732.68 376L732.68 329zM732.68 376L773.38 399.5L773.38 446.5L732.68 470L691.97 446.5L691.97 399.5zM773.38 446.5L814.09 470L814.09 517L773.38 540.5L732.68 517L732.68 470zM732.68 517L773.38 540.5L773.38 587.5L732.68 611L691.97 587.5L691.97 540.5zM773.38 587.5L814.09 611L814.09 658L773.38 681.5L732.68 658L732.68 611zM732.68 658L773.38 681.5L773.38 728.5L732.68 752L691.97 728.5L691.97 681.5zM814.09 -47L854.79 -23.5L854.79 23.5L814.09 47L773.38 23.5L773.38 -23.5zM854.79 23.5L895.5 47L895.5 94L854.79 117.5L814.09 94L814.09 47zM814.09 94L854.79 117.5L854.79 164.5L814.09 188L773.38 164.5L773.38 117.5zM854.79 164.5L895.5 188L895.5 235L854.79 258.5L814.09 235L814.09 188zM814.09 235L854.79 258.5L854.79 305.5L814.09 329L773.38 305.5L773.38 258.5zM854.79 305.5L895.5 329L895.5 376L854.79 399.5L814.09 376L814.09 329zM814.09 376L854.79 399.5L854.79 446.5L814.09 470L773.38 446.5L773.38 399.5zM854.79 446.5L895.5 470L895.5 517L854.79 540.5L814.09 517L814.09 470zM814.09 517L854.79 540.5L854.79 587.5L814.09 611L773.38 587.5L773.38 540.5zM854.79 587.5L895.5 611L895.5 658L854.79 681.5L814.09 658L814.09 611zM814.09 658L854.79 681.5L854.79 728.5L814.09 752L773.38 728.5L773.38 681.5zM895.5 -47L936.2 -23.5L936.2 23.5L895.5 47L854.79 23.5L854.79 -23.5zM936.2 23.5L976.9 47L976.9 94L936.2 117.5L895.5 94L895.5 47zM895.5 94L936.2 117.5L936.2 164.5L895.5 188L854.79 164.5L854.79 117.5zM936.2 164.5L976.9 188L976.9 235L936.2 258.5L895.5 235L895.5 188zM895.5 235L936.2 258.5L936.2 305.5L895.5 329L854.79 305.5L854.79 258.5zM936.2 305.5L976.9 329L976.9 376L936.2 399.5L895.5 376L895.5 329zM895.5 376L936.2 399.5L936.2 446.5L895.5 470L854.79 446.5L854.79 399.5zM936.2 446.5L976.9 470L976.9 517L936.2 540.5L895.5 517L895.5 470zM895.5 517L936.2 540.5L936.2 587.5L895.5 611L854.79 587.5L854.79 540.5zM936.2 587.5L976.9 611L976.9 658L936.2 681.5L895.5 658L895.5 611zM895.5 658L936.2 681.5L936.2 728.5L895.5 752L854.79 728.5L854.79 681.5zM976.9 -47L1017.61 -23.5L1017.61 23.5L976.9 47L936.2 23.5L936.2 -23.5zM1017.61 23.5L1058.31 47L1058.31 94L1017.61 117.5L976.9 94L976.9 47zM976.9 94L1017.61 117.5L1017.61 164.5L976.9 188L936.2 164.5L936.2 117.5zM1017.61 164.5L1058.31 188L1058.31 235L1017.61 258.5L976.9 235L976.9 188zM976.9 235L1017.61 258.5L1017.61 305.5L976.9 329L936.2 305.5L936.2 258.5zM1017.61 305.5L1058.31 329L1058.31 376L1017.61 399.5L976.9 376L976.9 329zM976.9 376L1017.61 399.5L1017.61 446.5L976.9 470L936.2 446.5L936.2 399.5zM1017.61 446.5L1058.31 470L1058.31 517L1017.61 540.5L976.9 517L976.9 470zM976.9 517L1017.61 540.5L1017.61 587.5L976.9 611L936.2 587.5L936.2 540.5zM1017.61 587.5L1058.31 611L1058.31 658L1017.61 681.5L976.9 658L976.9 611zM976.9 658L1017.61 681.5L1017.61 728.5L976.9 752L936.2 728.5L936.2 681.5zM1058.31 -47L1099.02 -23.5L1099.02 23.5L1058.31 47L1017.61 23.5L1017.61 -23.5zM1099.02 23.5L1139.72 47L1139.72 94L1099.02 117.5L1058.31 94L1058.31 47zM1058.31 94L1099.02 117.5L1099.02 164.5L1058.31 188L1017.61 164.5L1017.61 117.5zM1099.02 164.5L1139.72 188L1139.72 235L1099.02 258.5L1058.31 235L1058.31 188zM1058.31 235L1099.02 258.5L1099.02 305.5L1058.31 329L1017.61 305.5L1017.61 258.5zM1099.02 305.5L1139.72 329L1139.72 376L1099.02 399.5L1058.31 376L1058.31 329zM1058.31 376L1099.02 399.5L1099.02 446.5L1058.31 470L1017.61 446.5L1017.61 399.5zM1099.02 446.5L1139.72 470L1139.72 517L1099.02 540.5L1058.31 517L1058.31 470zM1058.31 517L1099.02 540.5L1099.02 587.5L1058.31 611L1017.61 587.5L1017.61 540.5zM1099.02 587.5L1139.72 611L1139.72 658L1099.02 681.5L1058.31 658L1058.31 611zM1058.31 658L1099.02 681.5L1099.02 728.5L1058.31 752L1017.61 728.5L1017.61 681.5zM1139.72 -47L1180.43 -23.5L1180.43 23.5L1139.72 47L1099.02 23.5L1099.02 -23.5zM1180.43 23.5L1221.13 47L1221.13 94L1180.43 117.5L1139.72 94L1139.72 47zM1139.72 94L1180.43 117.5L1180.43 164.5L1139.72 188L1099.02 164.5L1099.02 117.5zM1180.43 164.5L1221.13 188L1221.13 235L1180.43 258.5L1139.72 235L1139.72 188zM1139.72 235L1180.43 258.5L1180.43 305.5L1139.72 329L1099.02 305.5L1099.02 258.5zM1180.43 305.5L1221.13 329L1221.13 376L1180.43 399.5L1139.72 376L1139.72 329zM1139.72 376L1180.43 399.5L1180.43 446.5L1139.72 470L1099.02 446.5L1099.02 399.5zM1180.43 446.5L1221.13 470L1221.13 517L1180.43 540.5L1139.72 517L1139.72 470zM1139.72 517L1180.43 540.5L1180.43 587.5L1139.72 611L1099.02 587.5L1099.02 540.5zM1180.43 587.5L1221.13 611L1221.13 658L1180.43 681.5L1139.72 658L1139.72 611zM1139.72 658L1180.43 681.5L1180.43 728.5L1139.72 752L1099.02 728.5L1099.02 681.5zM1221.13 -47L1261.83 -23.5L1261.83 23.5L1221.13 47L1180.43 23.5L1180.43 -23.5zM1261.83 23.5L1302.54 47L1302.54 94L1261.83 117.5L1221.13 94L1221.13 47zM1221.13 94L1261.83 117.5L1261.83 164.5L1221.13 188L1180.43 164.5L1180.43 117.5zM1261.83 164.5L1302.54 188L1302.54 235L1261.83 258.5L1221.13 235L1221.13 188zM1221.13 235L1261.83 258.5L1261.83 305.5L1221.13 329L1180.43 305.5L1180.43 258.5zM1261.83 305.5L1302.54 329L1302.54 376L1261.83 399.5L1221.13 376L1221.13 329zM1221.13 376L1261.83 399.5L1261.83 446.5L1221.13 470L1180.43 446.5L1180.43 399.5zM1261.83 446.5L1302.54 470L1302.54 517L1261.83 540.5L1221.13 517L1221.13 470zM1221.13 517L1261.83 540.5L1261.83 587.5L1221.13 611L1180.43 587.5L1180.43 540.5zM1261.83 587.5L1302.54 611L1302.54 658L1261.83 681.5L1221.13 658L1221.13 611zM1221.13 658L1261.83 681.5L1261.83 728.5L1221.13 752L1180.43 728.5L1180.43 681.5zM1302.54 -47L1343.24 -23.5L1343.24 23.5L1302.54 47L1261.83 23.5L1261.83 -23.5zM1343.24 23.5L1383.95 47L1383.95 94L1343.24 117.5L1302.54 94L1302.54 47zM1302.54 94L1343.24 117.5L1343.24 164.5L1302.54 188L1261.83 164.5L1261.83 117.5zM1343.24 164.5L1383.95 188L1383.95 235L1343.24 258.5L1302.54 235L1302.54 188zM1302.54 235L1343.24 258.5L1343.24 305.5L1302.54 329L1261.83 305.5L1261.83 258.5zM1343.24 305.5L1383.95 329L1383.95 376L1343.24 399.5L1302.54 376L1302.54 329zM1302.54 376L1343.24 399.5L1343.24 446.5L1302.54 470L1261.83 446.5L1261.83 399.5zM1343.24 446.5L1383.95 470L1383.95 517L1343.24 540.5L1302.54 517L1302.54 470zM1302.54 517L1343.24 540.5L1343.24 587.5L1302.54 611L1261.83 587.5L1261.83 540.5zM1343.24 587.5L1383.95 611L1383.95 658L1343.24 681.5L1302.54 658L1302.54 611zM1302.54 658L1343.24 681.5L1343.24 728.5L1302.54 752L1261.83 728.5L1261.83 681.5zM1383.95 -47L1424.65 -23.5L1424.65 23.5L1383.95 47L1343.24 23.5L1343.24 -23.5zM1424.65 23.5L1465.36 47L1465.36 94L1424.65 117.5L1383.95 94L1383.95 47zM1383.95 94L1424.65 117.5L1424.65 164.5L1383.95 188L1343.24 164.5L1343.24 117.5zM1424.65 164.5L1465.36 188L1465.36 235L1424.65 258.5L1383.95 235L1383.95 188zM1383.95 235L1424.65 258.5L1424.65 305.5L1383.95 329L1343.24 305.5L1343.24 258.5zM1424.65 305.5L1465.36 329L1465.36 376L1424.65 399.5L1383.95 376L1383.95 329zM1383.95 376L1424.65 399.5L1424.65 446.5L1383.95 470L1343.24 446.5L1343.24 399.5zM1424.65 446.5L1465.36 470L1465.36 517L1424.65 540.5L1383.95 517L1383.95 470zM1383.95 517L1424.65 540.5L1424.65 587.5L1383.95 611L1343.24 587.5L1343.24 540.5zM1424.65 587.5L1465.36 611L1465.36 658L1424.65 681.5L1383.95 658L1383.95 611zM1383.95 658L1424.65 681.5L1424.65 728.5L1383.95 752L1343.24 728.5L1343.24 681.5z" stroke="#03305d" stroke-width="2"></path><path d="M-4.7 -47 a4.7 4.7 0 1 0 9.4 0 a4.7 4.7 0 1 0 -9.4 0zM36 -23.5 a4.7 4.7 0 1 0 9.4 0 a4.7 4.7 0 1 0 -9.4 0zM36 23.5 a4.7 4.7 0 1 0 9.4 0 a4.7 4.7 0 1 0 -9.4 0zM-4.7 47 a4.7 4.7 0 1 0 9.4 0 a4.7 4.7 0 1 0 -9.4 0zM-45.4 23.5 a4.7 4.7 0 1 0 9.4 0 a4.7 4.7 0 1 0 -9.4 0zM-45.4 -23.5 a4.7 4.7 0 1 0 9.4 0 a4.7 4.7 0 1 0 -9.4 0zM76.71 47 a4.7 4.7 0 1 0 9.4 0 a4.7 4.7 0 1 0 -9.4 0zM76.71 94 a4.7 4.7 0 1 0 9.4 0 a4.7 4.7 0 1 0 -9.4 0zM36 117.5 a4.7 4.7 0 1 0 9.4 0 a4.7 4.7 0 1 0 -9.4 0zM-4.7 94 a4.7 4.7 0 1 0 9.4 0 a4.7 4.7 0 1 0 -9.4 0zM36 164.5 a4.7 4.7 0 1 0 9.4 0 a4.7 4.7 0 1 0 -9.4 0zM-4.7 188 a4.7 4.7 0 1 0 9.4 0 a4.7 4.7 0 1 0 -9.4 0zM-45.4 164.5 a4.7 4.7 0 1 0 9.4 0 a4.7 4.7 0 1 0 -9.4 0zM-45.4 117.5 a4.7 4.7 0 1 0 9.4 0 a4.7 4.7 0 1 0 -9.4 0zM76.71 188 a4.7 4.7 0 1 0 9.4 0 a4.7 4.7 0 1 0 -9.4 0zM76.71 235 a4.7 4.7 0 1 0 9.4 0 a4.7 4.7 0 1 0 -9.4 0zM36 258.5 a4.7 4.7 0 1 0 9.4 0 a4.7 4.7 0 1 0 -9.4 0zM-4.7 235 a4.7 4.7 0 1 0 9.4 0 a4.7 4.7 0 1 0 -9.4 0zM36 305.5 a4.7 4.7 0 1 0 9.4 0 a4.7 4.7 0 1 0 -9.4 0zM-4.7 329 a4.7 4.7 0 1 0 9.4 0 a4.7 4.7 0 1 0 -9.4 0zM-45.4 305.5 a4.7 4.7 0 1 0 9.4 0 a4.7 4.7 0 1 0 -9.4 0zM-45.4 258.5 a4.7 4.7 0 1 0 9.4 0 a4.7 4.7 0 1 0 -9.4 0zM76.71 329 a4.7 4.7 0 1 0 9.4 0 a4.7 4.7 0 1 0 -9.4 0zM76.71 376 a4.7 4.7 0 1 0 9.4 0 a4.7 4.7 0 1 0 -9.4 0zM36 399.5 a4.7 4.7 0 1 0 9.4 0 a4.7 4.7 0 1 0 -9.4 0zM-4.7 376 a4.7 4.7 0 1 0 9.4 0 a4.7 4.7 0 1 0 -9.4 0zM36 446.5 a4.7 4.7 0 1 0 9.4 0 a4.7 4.7 0 1 0 -9.4 0zM-4.7 470 a4.7 4.7 0 1 0 9.4 0 a4.7 4.7 0 1 0 -9.4 0zM-45.4 446.5 a4.7 4.7 0 1 0 9.4 0 a4.7 4.7 0 1 0 -9.4 0zM-45.4 399.5 a4.7 4.7 0 1 0 9.4 0 a4.7 4.7 0 1 0 -9.4 0zM76.71 470 a4.7 4.7 0 1 0 9.4 0 a4.7 4.7 0 1 0 -9.4 0zM76.71 517 a4.7 4.7 0 1 0 9.4 0 a4.7 4.7 0 1 0 -9.4 0zM36 540.5 a4.7 4.7 0 1 0 9.4 0 a4.7 4.7 0 1 0 -9.4 0zM-4.7 517 a4.7 4.7 0 1 0 9.4 0 a4.7 4.7 0 1 0 -9.4 0zM36 587.5 a4.7 4.7 0 1 0 9.4 0 a4.7 4.7 0 1 0 -9.4 0zM-4.7 611 a4.7 4.7 0 1 0 9.4 0 a4.7 4.7 0 1 0 -9.4 0zM-45.4 587.5 a4.7 4.7 0 1 0 9.4 0 a4.7 4.7 0 1 0 -9.4 0zM-45.4 540.5 a4.7 4.7 0 1 0 9.4 0 a4.7 4.7 0 1 0 -9.4 0zM76.71 611 a4.7 4.7 0 1 0 9.4 0 a4.7 4.7 0 1 0 -9.4 0zM76.71 658 a4.7 4.7 0 1 0 9.4 0 a4.7 4.7 0 1 0 -9.4 0zM36 681.5 a4.7 4.7 0 1 0 9.4 0 a4.7 4.7 0 1 0 -9.4 0zM-4.7 658 a4.7 4.7 0 1 0 9.4 0 a4.7 4.7 0 1 0 -9.4 0zM36 728.5 a4.7 4.7 0 1 0 9.4 0 a4.7 4.7 0 1 0 -9.4 0zM-4.7 752 a4.7 4.7 0 1 0 9.4 0 a4.7 4.7 0 1 0 -9.4 0zM-45.4 728.5 a4.7 4.7 0 1 0 9.4 0 a4.7 4.7 0 1 0 -9.4 0zM-45.4 681.5 a4.7 4.7 0 1 0 9.4 0 a4.7 4.7 0 1 0 -9.4 0zM76.71 -47 a4.7 4.7 0 1 0 9.4 0 a4.7 4.7 0 1 0 -9.4 0zM117.41 -23.5 a4.7 4.7 0 1 0 9.4 0 a4.7 4.7 0 1 0 -9.4 0zM117.41 23.5 a4.7 4.7 0 1 0 9.4 0 a4.7 4.7 0 1 0 -9.4 0zM158.12 47 a4.7 4.7 0 1 0 9.4 0 a4.7 4.7 0 1 0 -9.4 0zM158.12 94 a4.7 4.7 0 1 0 9.4 0 a4.7 4.7 0 1 0 -9.4 0zM117.41 117.5 a4.7 4.7 0 1 0 9.4 0 a4.7 4.7 0 1 0 -9.4 0zM117.41 164.5 a4.7 4.7 0 1 0 9.4 0 a4.7 4.7 0 1 0 -9.4 0zM158.12 188 a4.7 4.7 0 1 0 9.4 0 a4.7 4.7 0 1 0 -9.4 0zM158.12 235 a4.7 4.7 0 1 0 9.4 0 a4.7 4.7 0 1 0 -9.4 0zM117.41 258.5 a4.7 4.7 0 1 0 9.4 0 a4.7 4.7 0 1 0 -9.4 0zM117.41 305.5 a4.7 4.7 0 1 0 9.4 0 a4.7 4.7 0 1 0 -9.4 0zM158.12 329 a4.7 4.7 0 1 0 9.4 0 a4.7 4.7 0 1 0 -9.4 0zM158.12 376 a4.7 4.7 0 1 0 9.4 0 a4.7 4.7 0 1 0 -9.4 0zM117.41 399.5 a4.7 4.7 0 1 0 9.4 0 a4.7 4.7 0 1 0 -9.4 0zM117.41 446.5 a4.7 4.7 0 1 0 9.4 0 a4.7 4.7 0 1 0 -9.4 0zM158.12 470 a4.7 4.7 0 1 0 9.4 0 a4.7 4.7 0 1 0 -9.4 0zM158.12 517 a4.7 4.7 0 1 0 9.4 0 a4.7 4.7 0 1 0 -9.4 0zM117.41 540.5 a4.7 4.7 0 1 0 9.4 0 a4.7 4.7 0 1 0 -9.4 0zM117.41 587.5 a4.7 4.7 0 1 0 9.4 0 a4.7 4.7 0 1 0 -9.4 0zM158.12 611 a4.7 4.7 0 1 0 9.4 0 a4.7 4.7 0 1 0 -9.4 0zM158.12 658 a4.7 4.7 0 1 0 9.4 0 a4.7 4.7 0 1 0 -9.4 0zM117.41 681.5 a4.7 4.7 0 1 0 9.4 0 a4.7 4.7 0 1 0 -9.4 0zM117.41 728.5 a4.7 4.7 0 1 0 9.4 0 a4.7 4.7 0 1 0 -9.4 0zM76.71 752 a4.7 4.7 0 1 0 9.4 0 a4.7 4.7 0 1 0 -9.4 0zM158.12 -47 a4.7 4.7 0 1 0 9.4 0 a4.7 4.7 0 1 0 -9.4 0zM198.82 -23.5 a4.7 4.7 0 1 0 9.4 0 a4.7 4.7 0 1 0 -9.4 0zM198.82 23.5 a4.7 4.7 0 1 0 9.4 0 a4.7 4.7 0 1 0 -9.4 0zM239.53 47 a4.7 4.7 0 1 0 9.4 0 a4.7 4.7 0 1 0 -9.4 0zM239.53 94 a4.7 4.7 0 1 0 9.4 0 a4.7 4.7 0 1 0 -9.4 0zM198.82 117.5 a4.7 4.7 0 1 0 9.4 0 a4.7 4.7 0 1 0 -9.4 0zM198.82 164.5 a4.7 4.7 0 1 0 9.4 0 a4.7 4.7 0 1 0 -9.4 0zM239.53 188 a4.7 4.7 0 1 0 9.4 0 a4.7 4.7 0 1 0 -9.4 0zM239.53 235 a4.7 4.7 0 1 0 9.4 0 a4.7 4.7 0 1 0 -9.4 0zM198.82 258.5 a4.7 4.7 0 1 0 9.4 0 a4.7 4.7 0 1 0 -9.4 0zM198.82 305.5 a4.7 4.7 0 1 0 9.4 0 a4.7 4.7 0 1 0 -9.4 0zM239.53 329 a4.7 4.7 0 1 0 9.4 0 a4.7 4.7 0 1 0 -9.4 0zM239.53 376 a4.7 4.7 0 1 0 9.4 0 a4.7 4.7 0 1 0 -9.4 0zM198.82 399.5 a4.7 4.7 0 1 0 9.4 0 a4.7 4.7 0 1 0 -9.4 0zM198.82 446.5 a4.7 4.7 0 1 0 9.4 0 a4.7 4.7 0 1 0 -9.4 0zM239.53 470 a4.7 4.7 0 1 0 9.4 0 a4.7 4.7 0 1 0 -9.4 0zM239.53 517 a4.7 4.7 0 1 0 9.4 0 a4.7 4.7 0 1 0 -9.4 0zM198.82 540.5 a4.7 4.7 0 1 0 9.4 0 a4.7 4.7 0 1 0 -9.4 0zM198.82 587.5 a4.7 4.7 0 1 0 9.4 0 a4.7 4.7 0 1 0 -9.4 0zM239.53 611 a4.7 4.7 0 1 0 9.4 0 a4.7 4.7 0 1 0 -9.4 0zM239.53 658 a4.7 4.7 0 1 0 9.4 0 a4.7 4.7 0 1 0 -9.4 0zM198.82 681.5 a4.7 4.7 0 1 0 9.4 0 a4.7 4.7 0 1 0 -9.4 0zM198.82 728.5 a4.7 4.7 0 1 0 9.4 0 a4.7 4.7 0 1 0 -9.4 0zM158.12 752 a4.7 4.7 0 1 0 9.4 0 a4.7 4.7 0 1 0 -9.4 0zM239.53 -47 a4.7 4.7 0 1 0 9.4 0 a4.7 4.7 0 1 0 -9.4 0zM280.23 -23.5 a4.7 4.7 0 1 0 9.4 0 a4.7 4.7 0 1 0 -9.4 0zM280.23 23.5 a4.7 4.7 0 1 0 9.4 0 a4.7 4.7 0 1 0 -9.4 0zM320.93 47 a4.7 4.7 0 1 0 9.4 0 a4.7 4.7 0 1 0 -9.4 0zM320.93 94 a4.7 4.7 0 1 0 9.4 0 a4.7 4.7 0 1 0 -9.4 0zM280.23 117.5 a4.7 4.7 0 1 0 9.4 0 a4.7 4.7 0 1 0 -9.4 0zM280.23 164.5 a4.7 4.7 0 1 0 9.4 0 a4.7 4.7 0 1 0 -9.4 0zM320.93 188 a4.7 4.7 0 1 0 9.4 0 a4.7 4.7 0 1 0 -9.4 0zM320.93 235 a4.7 4.7 0 1 0 9.4 0 a4.7 4.7 0 1 0 -9.4 0zM280.23 258.5 a4.7 4.7 0 1 0 9.4 0 a4.7 4.7 0 1 0 -9.4 0zM280.23 305.5 a4.7 4.7 0 1 0 9.4 0 a4.7 4.7 0 1 0 -9.4 0zM320.93 329 a4.7 4.7 0 1 0 9.4 0 a4.7 4.7 0 1 0 -9.4 0zM320.93 376 a4.7 4.7 0 1 0 9.4 0 a4.7 4.7 0 1 0 -9.4 0zM280.23 399.5 a4.7 4.7 0 1 0 9.4 0 a4.7 4.7 0 1 0 -9.4 0zM280.23 446.5 a4.7 4.7 0 1 0 9.4 0 a4.7 4.7 0 1 0 -9.4 0zM320.93 470 a4.7 4.7 0 1 0 9.4 0 a4.7 4.7 0 1 0 -9.4 0zM320.93 517 a4.7 4.7 0 1 0 9.4 0 a4.7 4.7 0 1 0 -9.4 0zM280.23 540.5 a4.7 4.7 0 1 0 9.4 0 a4.7 4.7 0 1 0 -9.4 0zM280.23 587.5 a4.7 4.7 0 1 0 9.4 0 a4.7 4.7 0 1 0 -9.4 0zM320.93 611 a4.7 4.7 0 1 0 9.4 0 a4.7 4.7 0 1 0 -9.4 0zM320.93 658 a4.7 4.7 0 1 0 9.4 0 a4.7 4.7 0 1 0 -9.4 0zM280.23 681.5 a4.7 4.7 0 1 0 9.4 0 a4.7 4.7 0 1 0 -9.4 0zM280.23 728.5 a4.7 4.7 0 1 0 9.4 0 a4.7 4.7 0 1 0 -9.4 0zM239.53 752 a4.7 4.7 0 1 0 9.4 0 a4.7 4.7 0 1 0 -9.4 0zM320.93 -47 a4.7 4.7 0 1 0 9.4 0 a4.7 4.7 0 1 0 -9.4 0zM361.64 -23.5 a4.7 4.7 0 1 0 9.4 0 a4.7 4.7 0 1 0 -9.4 0zM361.64 23.5 a4.7 4.7 0 1 0 9.4 0 a4.7 4.7 0 1 0 -9.4 0zM402.34 47 a4.7 4.7 0 1 0 9.4 0 a4.7 4.7 0 1 0 -9.4 0zM402.34 94 a4.7 4.7 0 1 0 9.4 0 a4.7 4.7 0 1 0 -9.4 0zM361.64 117.5 a4.7 4.7 0 1 0 9.4 0 a4.7 4.7 0 1 0 -9.4 0zM361.64 164.5 a4.7 4.7 0 1 0 9.4 0 a4.7 4.7 0 1 0 -9.4 0zM402.34 188 a4.7 4.7 0 1 0 9.4 0 a4.7 4.7 0 1 0 -9.4 0zM402.34 235 a4.7 4.7 0 1 0 9.4 0 a4.7 4.7 0 1 0 -9.4 0zM361.64 258.5 a4.7 4.7 0 1 0 9.4 0 a4.7 4.7 0 1 0 -9.4 0zM361.64 305.5 a4.7 4.7 0 1 0 9.4 0 a4.7 4.7 0 1 0 -9.4 0zM402.34 329 a4.7 4.7 0 1 0 9.4 0 a4.7 4.7 0 1 0 -9.4 0zM402.34 376 a4.7 4.7 0 1 0 9.4 0 a4.7 4.7 0 1 0 -9.4 0zM361.64 399.5 a4.7 4.7 0 1 0 9.4 0 a4.7 4.7 0 1 0 -9.4 0zM361.64 446.5 a4.7 4.7 0 1 0 9.4 0 a4.7 4.7 0 1 0 -9.4 0zM402.34 470 a4.7 4.7 0 1 0 9.4 0 a4.7 4.7 0 1 0 -9.4 0zM402.34 517 a4.7 4.7 0 1 0 9.4 0 a4.7 4.7 0 1 0 -9.4 0zM361.64 540.5 a4.7 4.7 0 1 0 9.4 0 a4.7 4.7 0 1 0 -9.4 0zM361.64 587.5 a4.7 4.7 0 1 0 9.4 0 a4.7 4.7 0 1 0 -9.4 0zM402.34 611 a4.7 4.7 0 1 0 9.4 0 a4.7 4.7 0 1 0 -9.4 0zM402.34 658 a4.7 4.7 0 1 0 9.4 0 a4.7 4.7 0 1 0 -9.4 0zM361.64 681.5 a4.7 4.7 0 1 0 9.4 0 a4.7 4.7 0 1 0 -9.4 0zM361.64 728.5 a4.7 4.7 0 1 0 9.4 0 a4.7 4.7 0 1 0 -9.4 0zM320.93 752 a4.7 4.7 0 1 0 9.4 0 a4.7 4.7 0 1 0 -9.4 0zM402.34 -47 a4.7 4.7 0 1 0 9.4 0 a4.7 4.7 0 1 0 -9.4 0zM443.05 -23.5 a4.7 4.7 0 1 0 9.4 0 a4.7 4.7 0 1 0 -9.4 0zM443.05 23.5 a4.7 4.7 0 1 0 9.4 0 a4.7 4.7 0 1 0 -9.4 0zM483.75 47 a4.7 4.7 0 1 0 9.4 0 a4.7 4.7 0 1 0 -9.4 0zM483.75 94 a4.7 4.7 0 1 0 9.4 0 a4.7 4.7 0 1 0 -9.4 0zM443.05 117.5 a4.7 4.7 0 1 0 9.4 0 a4.7 4.7 0 1 0 -9.4 0zM443.05 164.5 a4.7 4.7 0 1 0 9.4 0 a4.7 4.7 0 1 0 -9.4 0zM483.75 188 a4.7 4.7 0 1 0 9.4 0 a4.7 4.7 0 1 0 -9.4 0zM483.75 235 a4.7 4.7 0 1 0 9.4 0 a4.7 4.7 0 1 0 -9.4 0zM443.05 258.5 a4.7 4.7 0 1 0 9.4 0 a4.7 4.7 0 1 0 -9.4 0zM443.05 305.5 a4.7 4.7 0 1 0 9.4 0 a4.7 4.7 0 1 0 -9.4 0zM483.75 329 a4.7 4.7 0 1 0 9.4 0 a4.7 4.7 0 1 0 -9.4 0zM483.75 376 a4.7 4.7 0 1 0 9.4 0 a4.7 4.7 0 1 0 -9.4 0zM443.05 399.5 a4.7 4.7 0 1 0 9.4 0 a4.7 4.7 0 1 0 -9.4 0zM443.05 446.5 a4.7 4.7 0 1 0 9.4 0 a4.7 4.7 0 1 0 -9.4 0zM483.75 470 a4.7 4.7 0 1 0 9.4 0 a4.7 4.7 0 1 0 -9.4 0zM483.75 517 a4.7 4.7 0 1 0 9.4 0 a4.7 4.7 0 1 0 -9.4 0zM443.05 540.5 a4.7 4.7 0 1 0 9.4 0 a4.7 4.7 0 1 0 -9.4 0zM443.05 587.5 a4.7 4.7 0 1 0 9.4 0 a4.7 4.7 0 1 0 -9.4 0zM483.75 611 a4.7 4.7 0 1 0 9.4 0 a4.7 4.7 0 1 0 -9.4 0zM483.75 658 a4.7 4.7 0 1 0 9.4 0 a4.7 4.7 0 1 0 -9.4 0zM443.05 681.5 a4.7 4.7 0 1 0 9.4 0 a4.7 4.7 0 1 0 -9.4 0zM443.05 728.5 a4.7 4.7 0 1 0 9.4 0 a4.7 4.7 0 1 0 -9.4 0zM402.34 752 a4.7 4.7 0 1 0 9.4 0 a4.7 4.7 0 1 0 -9.4 0zM483.75 -47 a4.7 4.7 0 1 0 9.4 0 a4.7 4.7 0 1 0 -9.4 0zM524.46 -23.5 a4.7 4.7 0 1 0 9.4 0 a4.7 4.7 0 1 0 -9.4 0zM524.46 23.5 a4.7 4.7 0 1 0 9.4 0 a4.7 4.7 0 1 0 -9.4 0zM565.16 47 a4.7 4.7 0 1 0 9.4 0 a4.7 4.7 0 1 0 -9.4 0zM565.16 94 a4.7 4.7 0 1 0 9.4 0 a4.7 4.7 0 1 0 -9.4 0zM524.46 117.5 a4.7 4.7 0 1 0 9.4 0 a4.7 4.7 0 1 0 -9.4 0zM524.46 164.5 a4.7 4.7 0 1 0 9.4 0 a4.7 4.7 0 1 0 -9.4 0zM565.16 188 a4.7 4.7 0 1 0 9.4 0 a4.7 4.7 0 1 0 -9.4 0zM565.16 235 a4.7 4.7 0 1 0 9.4 0 a4.7 4.7 0 1 0 -9.4 0zM524.46 258.5 a4.7 4.7 0 1 0 9.4 0 a4.7 4.7 0 1 0 -9.4 0zM524.46 305.5 a4.7 4.7 0 1 0 9.4 0 a4.7 4.7 0 1 0 -9.4 0zM565.16 329 a4.7 4.7 0 1 0 9.4 0 a4.7 4.7 0 1 0 -9.4 0zM565.16 376 a4.7 4.7 0 1 0 9.4 0 a4.7 4.7 0 1 0 -9.4 0zM524.46 399.5 a4.7 4.7 0 1 0 9.4 0 a4.7 4.7 0 1 0 -9.4 0zM524.46 446.5 a4.7 4.7 0 1 0 9.4 0 a4.7 4.7 0 1 0 -9.4 0zM565.16 470 a4.7 4.7 0 1 0 9.4 0 a4.7 4.7 0 1 0 -9.4 0zM565.16 517 a4.7 4.7 0 1 0 9.4 0 a4.7 4.7 0 1 0 -9.4 0zM524.46 540.5 a4.7 4.7 0 1 0 9.4 0 a4.7 4.7 0 1 0 -9.4 0zM524.46 587.5 a4.7 4.7 0 1 0 9.4 0 a4.7 4.7 0 1 0 -9.4 0zM565.16 611 a4.7 4.7 0 1 0 9.4 0 a4.7 4.7 0 1 0 -9.4 0zM565.16 658 a4.7 4.7 0 1 0 9.4 0 a4.7 4.7 0 1 0 -9.4 0zM524.46 681.5 a4.7 4.7 0 1 0 9.4 0 a4.7 4.7 0 1 0 -9.4 0zM524.46 728.5 a4.7 4.7 0 1 0 9.4 0 a4.7 4.7 0 1 0 -9.4 0zM483.75 752 a4.7 4.7 0 1 0 9.4 0 a4.7 4.7 0 1 0 -9.4 0zM565.16 -47 a4.7 4.7 0 1 0 9.4 0 a4.7 4.7 0 1 0 -9.4 0zM605.87 -23.5 a4.7 4.7 0 1 0 9.4 0 a4.7 4.7 0 1 0 -9.4 0zM605.87 23.5 a4.7 4.7 0 1 0 9.4 0 a4.7 4.7 0 1 0 -9.4 0zM646.57 47 a4.7 4.7 0 1 0 9.4 0 a4.7 4.7 0 1 0 -9.4 0zM646.57 94 a4.7 4.7 0 1 0 9.4 0 a4.7 4.7 0 1 0 -9.4 0zM605.87 117.5 a4.7 4.7 0 1 0 9.4 0 a4.7 4.7 0 1 0 -9.4 0zM605.87 164.5 a4.7 4.7 0 1 0 9.4 0 a4.7 4.7 0 1 0 -9.4 0zM646.57 188 a4.7 4.7 0 1 0 9.4 0 a4.7 4.7 0 1 0 -9.4 0zM646.57 235 a4.7 4.7 0 1 0 9.4 0 a4.7 4.7 0 1 0 -9.4 0zM605.87 258.5 a4.7 4.7 0 1 0 9.4 0 a4.7 4.7 0 1 0 -9.4 0zM605.87 305.5 a4.7 4.7 0 1 0 9.4 0 a4.7 4.7 0 1 0 -9.4 0zM646.57 329 a4.7 4.7 0 1 0 9.4 0 a4.7 4.7 0 1 0 -9.4 0zM646.57 376 a4.7 4.7 0 1 0 9.4 0 a4.7 4.7 0 1 0 -9.4 0zM605.87 399.5 a4.7 4.7 0 1 0 9.4 0 a4.7 4.7 0 1 0 -9.4 0zM605.87 446.5 a4.7 4.7 0 1 0 9.4 0 a4.7 4.7 0 1 0 -9.4 0zM646.57 470 a4.7 4.7 0 1 0 9.4 0 a4.7 4.7 0 1 0 -9.4 0zM646.57 517 a4.7 4.7 0 1 0 9.4 0 a4.7 4.7 0 1 0 -9.4 0zM605.87 540.5 a4.7 4.7 0 1 0 9.4 0 a4.7 4.7 0 1 0 -9.4 0zM605.87 587.5 a4.7 4.7 0 1 0 9.4 0 a4.7 4.7 0 1 0 -9.4 0zM646.57 611 a4.7 4.7 0 1 0 9.4 0 a4.7 4.7 0 1 0 -9.4 0zM646.57 658 a4.7 4.7 0 1 0 9.4 0 a4.7 4.7 0 1 0 -9.4 0zM605.87 681.5 a4.7 4.7 0 1 0 9.4 0 a4.7 4.7 0 1 0 -9.4 0zM605.87 728.5 a4.7 4.7 0 1 0 9.4 0 a4.7 4.7 0 1 0 -9.4 0zM565.16 752 a4.7 4.7 0 1 0 9.4 0 a4.7 4.7 0 1 0 -9.4 0zM646.57 -47 a4.7 4.7 0 1 0 9.4 0 a4.7 4.7 0 1 0 -9.4 0zM687.27 -23.5 a4.7 4.7 0 1 0 9.4 0 a4.7 4.7 0 1 0 -9.4 0zM687.27 23.5 a4.7 4.7 0 1 0 9.4 0 a4.7 4.7 0 1 0 -9.4 0zM727.98 47 a4.7 4.7 0 1 0 9.4 0 a4.7 4.7 0 1 0 -9.4 0zM727.98 94 a4.7 4.7 0 1 0 9.4 0 a4.7 4.7 0 1 0 -9.4 0zM687.27 117.5 a4.7 4.7 0 1 0 9.4 0 a4.7 4.7 0 1 0 -9.4 0zM687.27 164.5 a4.7 4.7 0 1 0 9.4 0 a4.7 4.7 0 1 0 -9.4 0zM727.98 188 a4.7 4.7 0 1 0 9.4 0 a4.7 4.7 0 1 0 -9.4 0zM727.98 235 a4.7 4.7 0 1 0 9.4 0 a4.7 4.7 0 1 0 -9.4 0zM687.27 258.5 a4.7 4.7 0 1 0 9.4 0 a4.7 4.7 0 1 0 -9.4 0zM687.27 305.5 a4.7 4.7 0 1 0 9.4 0 a4.7 4.7 0 1 0 -9.4 0zM727.98 329 a4.7 4.7 0 1 0 9.4 0 a4.7 4.7 0 1 0 -9.4 0zM727.98 376 a4.7 4.7 0 1 0 9.4 0 a4.7 4.7 0 1 0 -9.4 0zM687.27 399.5 a4.7 4.7 0 1 0 9.4 0 a4.7 4.7 0 1 0 -9.4 0zM687.27 446.5 a4.7 4.7 0 1 0 9.4 0 a4.7 4.7 0 1 0 -9.4 0zM727.98 470 a4.7 4.7 0 1 0 9.4 0 a4.7 4.7 0 1 0 -9.4 0zM727.98 517 a4.7 4.7 0 1 0 9.4 0 a4.7 4.7 0 1 0 -9.4 0zM687.27 540.5 a4.7 4.7 0 1 0 9.4 0 a4.7 4.7 0 1 0 -9.4 0zM687.27 587.5 a4.7 4.7 0 1 0 9.4 0 a4.7 4.7 0 1 0 -9.4 0zM727.98 611 a4.7 4.7 0 1 0 9.4 0 a4.7 4.7 0 1 0 -9.4 0zM727.98 658 a4.7 4.7 0 1 0 9.4 0 a4.7 4.7 0 1 0 -9.4 0zM687.27 681.5 a4.7 4.7 0 1 0 9.4 0 a4.7 4.7 0 1 0 -9.4 0zM687.27 728.5 a4.7 4.7 0 1 0 9.4 0 a4.7 4.7 0 1 0 -9.4 0zM646.57 752 a4.7 4.7 0 1 0 9.4 0 a4.7 4.7 0 1 0 -9.4 0zM727.98 -47 a4.7 4.7 0 1 0 9.4 0 a4.7 4.7 0 1 0 -9.4 0zM768.68 -23.5 a4.7 4.7 0 1 0 9.4 0 a4.7 4.7 0 1 0 -9.4 0zM768.68 23.5 a4.7 4.7 0 1 0 9.4 0 a4.7 4.7 0 1 0 -9.4 0zM809.39 47 a4.7 4.7 0 1 0 9.4 0 a4.7 4.7 0 1 0 -9.4 0zM809.39 94 a4.7 4.7 0 1 0 9.4 0 a4.7 4.7 0 1 0 -9.4 0zM768.68 117.5 a4.7 4.7 0 1 0 9.4 0 a4.7 4.7 0 1 0 -9.4 0zM768.68 164.5 a4.7 4.7 0 1 0 9.4 0 a4.7 4.7 0 1 0 -9.4 0zM809.39 188 a4.7 4.7 0 1 0 9.4 0 a4.7 4.7 0 1 0 -9.4 0zM809.39 235 a4.7 4.7 0 1 0 9.4 0 a4.7 4.7 0 1 0 -9.4 0zM768.68 258.5 a4.7 4.7 0 1 0 9.4 0 a4.7 4.7 0 1 0 -9.4 0zM768.68 305.5 a4.7 4.7 0 1 0 9.4 0 a4.7 4.7 0 1 0 -9.4 0zM809.39 329 a4.7 4.7 0 1 0 9.4 0 a4.7 4.7 0 1 0 -9.4 0zM809.39 376 a4.7 4.7 0 1 0 9.4 0 a4.7 4.7 0 1 0 -9.4 0zM768.68 399.5 a4.7 4.7 0 1 0 9.4 0 a4.7 4.7 0 1 0 -9.4 0zM768.68 446.5 a4.7 4.7 0 1 0 9.4 0 a4.7 4.7 0 1 0 -9.4 0zM809.39 470 a4.7 4.7 0 1 0 9.4 0 a4.7 4.7 0 1 0 -9.4 0zM809.39 517 a4.7 4.7 0 1 0 9.4 0 a4.7 4.7 0 1 0 -9.4 0zM768.68 540.5 a4.7 4.7 0 1 0 9.4 0 a4.7 4.7 0 1 0 -9.4 0zM768.68 587.5 a4.7 4.7 0 1 0 9.4 0 a4.7 4.7 0 1 0 -9.4 0zM809.39 611 a4.7 4.7 0 1 0 9.4 0 a4.7 4.7 0 1 0 -9.4 0zM809.39 658 a4.7 4.7 0 1 0 9.4 0 a4.7 4.7 0 1 0 -9.4 0zM768.68 681.5 a4.7 4.7 0 1 0 9.4 0 a4.7 4.7 0 1 0 -9.4 0zM768.68 728.5 a4.7 4.7 0 1 0 9.4 0 a4.7 4.7 0 1 0 -9.4 0zM727.98 752 a4.7 4.7 0 1 0 9.4 0 a4.7 4.7 0 1 0 -9.4 0zM809.39 -47 a4.7 4.7 0 1 0 9.4 0 a4.7 4.7 0 1 0 -9.4 0zM850.09 -23.5 a4.7 4.7 0 1 0 9.4 0 a4.7 4.7 0 1 0 -9.4 0zM850.09 23.5 a4.7 4.7 0 1 0 9.4 0 a4.7 4.7 0 1 0 -9.4 0zM890.8 47 a4.7 4.7 0 1 0 9.4 0 a4.7 4.7 0 1 0 -9.4 0zM890.8 94 a4.7 4.7 0 1 0 9.4 0 a4.7 4.7 0 1 0 -9.4 0zM850.09 117.5 a4.7 4.7 0 1 0 9.4 0 a4.7 4.7 0 1 0 -9.4 0zM850.09 164.5 a4.7 4.7 0 1 0 9.4 0 a4.7 4.7 0 1 0 -9.4 0zM890.8 188 a4.7 4.7 0 1 0 9.4 0 a4.7 4.7 0 1 0 -9.4 0zM890.8 235 a4.7 4.7 0 1 0 9.4 0 a4.7 4.7 0 1 0 -9.4 0zM850.09 258.5 a4.7 4.7 0 1 0 9.4 0 a4.7 4.7 0 1 0 -9.4 0zM850.09 305.5 a4.7 4.7 0 1 0 9.4 0 a4.7 4.7 0 1 0 -9.4 0zM890.8 329 a4.7 4.7 0 1 0 9.4 0 a4.7 4.7 0 1 0 -9.4 0zM890.8 376 a4.7 4.7 0 1 0 9.4 0 a4.7 4.7 0 1 0 -9.4 0zM850.09 399.5 a4.7 4.7 0 1 0 9.4 0 a4.7 4.7 0 1 0 -9.4 0zM850.09 446.5 a4.7 4.7 0 1 0 9.4 0 a4.7 4.7 0 1 0 -9.4 0zM890.8 470 a4.7 4.7 0 1 0 9.4 0 a4.7 4.7 0 1 0 -9.4 0zM890.8 517 a4.7 4.7 0 1 0 9.4 0 a4.7 4.7 0 1 0 -9.4 0zM850.09 540.5 a4.7 4.7 0 1 0 9.4 0 a4.7 4.7 0 1 0 -9.4 0zM850.09 587.5 a4.7 4.7 0 1 0 9.4 0 a4.7 4.7 0 1 0 -9.4 0zM890.8 611 a4.7 4.7 0 1 0 9.4 0 a4.7 4.7 0 1 0 -9.4 0zM890.8 658 a4.7 4.7 0 1 0 9.4 0 a4.7 4.7 0 1 0 -9.4 0zM850.09 681.5 a4.7 4.7 0 1 0 9.4 0 a4.7 4.7 0 1 0 -9.4 0zM850.09 728.5 a4.7 4.7 0 1 0 9.4 0 a4.7 4.7 0 1 0 -9.4 0zM809.39 752 a4.7 4.7 0 1 0 9.4 0 a4.7 4.7 0 1 0 -9.4 0zM890.8 -47 a4.7 4.7 0 1 0 9.4 0 a4.7 4.7 0 1 0 -9.4 0zM931.5 -23.5 a4.7 4.7 0 1 0 9.4 0 a4.7 4.7 0 1 0 -9.4 0zM931.5 23.5 a4.7 4.7 0 1 0 9.4 0 a4.7 4.7 0 1 0 -9.4 0zM972.2 47 a4.7 4.7 0 1 0 9.4 0 a4.7 4.7 0 1 0 -9.4 0zM972.2 94 a4.7 4.7 0 1 0 9.4 0 a4.7 4.7 0 1 0 -9.4 0zM931.5 117.5 a4.7 4.7 0 1 0 9.4 0 a4.7 4.7 0 1 0 -9.4 0zM931.5 164.5 a4.7 4.7 0 1 0 9.4 0 a4.7 4.7 0 1 0 -9.4 0zM972.2 188 a4.7 4.7 0 1 0 9.4 0 a4.7 4.7 0 1 0 -9.4 0zM972.2 235 a4.7 4.7 0 1 0 9.4 0 a4.7 4.7 0 1 0 -9.4 0zM931.5 258.5 a4.7 4.7 0 1 0 9.4 0 a4.7 4.7 0 1 0 -9.4 0zM931.5 305.5 a4.7 4.7 0 1 0 9.4 0 a4.7 4.7 0 1 0 -9.4 0zM972.2 329 a4.7 4.7 0 1 0 9.4 0 a4.7 4.7 0 1 0 -9.4 0zM972.2 376 a4.7 4.7 0 1 0 9.4 0 a4.7 4.7 0 1 0 -9.4 0zM931.5 399.5 a4.7 4.7 0 1 0 9.4 0 a4.7 4.7 0 1 0 -9.4 0zM931.5 446.5 a4.7 4.7 0 1 0 9.4 0 a4.7 4.7 0 1 0 -9.4 0zM972.2 470 a4.7 4.7 0 1 0 9.4 0 a4.7 4.7 0 1 0 -9.4 0zM972.2 517 a4.7 4.7 0 1 0 9.4 0 a4.7 4.7 0 1 0 -9.4 0zM931.5 540.5 a4.7 4.7 0 1 0 9.4 0 a4.7 4.7 0 1 0 -9.4 0zM931.5 587.5 a4.7 4.7 0 1 0 9.4 0 a4.7 4.7 0 1 0 -9.4 0zM972.2 611 a4.7 4.7 0 1 0 9.4 0 a4.7 4.7 0 1 0 -9.4 0zM972.2 658 a4.7 4.7 0 1 0 9.4 0 a4.7 4.7 0 1 0 -9.4 0zM931.5 681.5 a4.7 4.7 0 1 0 9.4 0 a4.7 4.7 0 1 0 -9.4 0zM931.5 728.5 a4.7 4.7 0 1 0 9.4 0 a4.7 4.7 0 1 0 -9.4 0zM890.8 752 a4.7 4.7 0 1 0 9.4 0 a4.7 4.7 0 1 0 -9.4 0zM972.2 -47 a4.7 4.7 0 1 0 9.4 0 a4.7 4.7 0 1 0 -9.4 0zM1012.91 -23.5 a4.7 4.7 0 1 0 9.4 0 a4.7 4.7 0 1 0 -9.4 0zM1012.91 23.5 a4.7 4.7 0 1 0 9.4 0 a4.7 4.7 0 1 0 -9.4 0zM1053.61 47 a4.7 4.7 0 1 0 9.4 0 a4.7 4.7 0 1 0 -9.4 0zM1053.61 94 a4.7 4.7 0 1 0 9.4 0 a4.7 4.7 0 1 0 -9.4 0zM1012.91 117.5 a4.7 4.7 0 1 0 9.4 0 a4.7 4.7 0 1 0 -9.4 0zM1012.91 164.5 a4.7 4.7 0 1 0 9.4 0 a4.7 4.7 0 1 0 -9.4 0zM1053.61 188 a4.7 4.7 0 1 0 9.4 0 a4.7 4.7 0 1 0 -9.4 0zM1053.61 235 a4.7 4.7 0 1 0 9.4 0 a4.7 4.7 0 1 0 -9.4 0zM1012.91 258.5 a4.7 4.7 0 1 0 9.4 0 a4.7 4.7 0 1 0 -9.4 0zM1012.91 305.5 a4.7 4.7 0 1 0 9.4 0 a4.7 4.7 0 1 0 -9.4 0zM1053.61 329 a4.7 4.7 0 1 0 9.4 0 a4.7 4.7 0 1 0 -9.4 0zM1053.61 376 a4.7 4.7 0 1 0 9.4 0 a4.7 4.7 0 1 0 -9.4 0zM1012.91 399.5 a4.7 4.7 0 1 0 9.4 0 a4.7 4.7 0 1 0 -9.4 0zM1012.91 446.5 a4.7 4.7 0 1 0 9.4 0 a4.7 4.7 0 1 0 -9.4 0zM1053.61 470 a4.7 4.7 0 1 0 9.4 0 a4.7 4.7 0 1 0 -9.4 0zM1053.61 517 a4.7 4.7 0 1 0 9.4 0 a4.7 4.7 0 1 0 -9.4 0zM1012.91 540.5 a4.7 4.7 0 1 0 9.4 0 a4.7 4.7 0 1 0 -9.4 0zM1012.91 587.5 a4.7 4.7 0 1 0 9.4 0 a4.7 4.7 0 1 0 -9.4 0zM1053.61 611 a4.7 4.7 0 1 0 9.4 0 a4.7 4.7 0 1 0 -9.4 0zM1053.61 658 a4.7 4.7 0 1 0 9.4 0 a4.7 4.7 0 1 0 -9.4 0zM1012.91 681.5 a4.7 4.7 0 1 0 9.4 0 a4.7 4.7 0 1 0 -9.4 0zM1012.91 728.5 a4.7 4.7 0 1 0 9.4 0 a4.7 4.7 0 1 0 -9.4 0zM972.2 752 a4.7 4.7 0 1 0 9.4 0 a4.7 4.7 0 1 0 -9.4 0zM1053.61 -47 a4.7 4.7 0 1 0 9.4 0 a4.7 4.7 0 1 0 -9.4 0zM1094.32 -23.5 a4.7 4.7 0 1 0 9.4 0 a4.7 4.7 0 1 0 -9.4 0zM1094.32 23.5 a4.7 4.7 0 1 0 9.4 0 a4.7 4.7 0 1 0 -9.4 0zM1135.02 47 a4.7 4.7 0 1 0 9.4 0 a4.7 4.7 0 1 0 -9.4 0zM1135.02 94 a4.7 4.7 0 1 0 9.4 0 a4.7 4.7 0 1 0 -9.4 0zM1094.32 117.5 a4.7 4.7 0 1 0 9.4 0 a4.7 4.7 0 1 0 -9.4 0zM1094.32 164.5 a4.7 4.7 0 1 0 9.4 0 a4.7 4.7 0 1 0 -9.4 0zM1135.02 188 a4.7 4.7 0 1 0 9.4 0 a4.7 4.7 0 1 0 -9.4 0zM1135.02 235 a4.7 4.7 0 1 0 9.4 0 a4.7 4.7 0 1 0 -9.4 0zM1094.32 258.5 a4.7 4.7 0 1 0 9.4 0 a4.7 4.7 0 1 0 -9.4 0zM1094.32 305.5 a4.7 4.7 0 1 0 9.4 0 a4.7 4.7 0 1 0 -9.4 0zM1135.02 329 a4.7 4.7 0 1 0 9.4 0 a4.7 4.7 0 1 0 -9.4 0zM1135.02 376 a4.7 4.7 0 1 0 9.4 0 a4.7 4.7 0 1 0 -9.4 0zM1094.32 399.5 a4.7 4.7 0 1 0 9.4 0 a4.7 4.7 0 1 0 -9.4 0zM1094.32 446.5 a4.7 4.7 0 1 0 9.4 0 a4.7 4.7 0 1 0 -9.4 0zM1135.02 470 a4.7 4.7 0 1 0 9.4 0 a4.7 4.7 0 1 0 -9.4 0zM1135.02 517 a4.7 4.7 0 1 0 9.4 0 a4.7 4.7 0 1 0 -9.4 0zM1094.32 540.5 a4.7 4.7 0 1 0 9.4 0 a4.7 4.7 0 1 0 -9.4 0zM1094.32 587.5 a4.7 4.7 0 1 0 9.4 0 a4.7 4.7 0 1 0 -9.4 0zM1135.02 611 a4.7 4.7 0 1 0 9.4 0 a4.7 4.7 0 1 0 -9.4 0zM1135.02 658 a4.7 4.7 0 1 0 9.4 0 a4.7 4.7 0 1 0 -9.4 0zM1094.32 681.5 a4.7 4.7 0 1 0 9.4 0 a4.7 4.7 0 1 0 -9.4 0zM1094.32 728.5 a4.7 4.7 0 1 0 9.4 0 a4.7 4.7 0 1 0 -9.4 0zM1053.61 752 a4.7 4.7 0 1 0 9.4 0 a4.7 4.7 0 1 0 -9.4 0zM1135.02 -47 a4.7 4.7 0 1 0 9.4 0 a4.7 4.7 0 1 0 -9.4 0zM1175.73 -23.5 a4.7 4.7 0 1 0 9.4 0 a4.7 4.7 0 1 0 -9.4 0zM1175.73 23.5 a4.7 4.7 0 1 0 9.4 0 a4.7 4.7 0 1 0 -9.4 0zM1216.43 47 a4.7 4.7 0 1 0 9.4 0 a4.7 4.7 0 1 0 -9.4 0zM1216.43 94 a4.7 4.7 0 1 0 9.4 0 a4.7 4.7 0 1 0 -9.4 0zM1175.73 117.5 a4.7 4.7 0 1 0 9.4 0 a4.7 4.7 0 1 0 -9.4 0zM1175.73 164.5 a4.7 4.7 0 1 0 9.4 0 a4.7 4.7 0 1 0 -9.4 0zM1216.43 188 a4.7 4.7 0 1 0 9.4 0 a4.7 4.7 0 1 0 -9.4 0zM1216.43 235 a4.7 4.7 0 1 0 9.4 0 a4.7 4.7 0 1 0 -9.4 0zM1175.73 258.5 a4.7 4.7 0 1 0 9.4 0 a4.7 4.7 0 1 0 -9.4 0zM1175.73 305.5 a4.7 4.7 0 1 0 9.4 0 a4.7 4.7 0 1 0 -9.4 0zM1216.43 329 a4.7 4.7 0 1 0 9.4 0 a4.7 4.7 0 1 0 -9.4 0zM1216.43 376 a4.7 4.7 0 1 0 9.4 0 a4.7 4.7 0 1 0 -9.4 0zM1175.73 399.5 a4.7 4.7 0 1 0 9.4 0 a4.7 4.7 0 1 0 -9.4 0zM1175.73 446.5 a4.7 4.7 0 1 0 9.4 0 a4.7 4.7 0 1 0 -9.4 0zM1216.43 470 a4.7 4.7 0 1 0 9.4 0 a4.7 4.7 0 1 0 -9.4 0zM1216.43 517 a4.7 4.7 0 1 0 9.4 0 a4.7 4.7 0 1 0 -9.4 0zM1175.73 540.5 a4.7 4.7 0 1 0 9.4 0 a4.7 4.7 0 1 0 -9.4 0zM1175.73 587.5 a4.7 4.7 0 1 0 9.4 0 a4.7 4.7 0 1 0 -9.4 0zM1216.43 611 a4.7 4.7 0 1 0 9.4 0 a4.7 4.7 0 1 0 -9.4 0zM1216.43 658 a4.7 4.7 0 1 0 9.4 0 a4.7 4.7 0 1 0 -9.4 0zM1175.73 681.5 a4.7 4.7 0 1 0 9.4 0 a4.7 4.7 0 1 0 -9.4 0zM1175.73 728.5 a4.7 4.7 0 1 0 9.4 0 a4.7 4.7 0 1 0 -9.4 0zM1135.02 752 a4.7 4.7 0 1 0 9.4 0 a4.7 4.7 0 1 0 -9.4 0zM1216.43 -47 a4.7 4.7 0 1 0 9.4 0 a4.7 4.7 0 1 0 -9.4 0zM1257.13 -23.5 a4.7 4.7 0 1 0 9.4 0 a4.7 4.7 0 1 0 -9.4 0zM1257.13 23.5 a4.7 4.7 0 1 0 9.4 0 a4.7 4.7 0 1 0 -9.4 0zM1297.84 47 a4.7 4.7 0 1 0 9.4 0 a4.7 4.7 0 1 0 -9.4 0zM1297.84 94 a4.7 4.7 0 1 0 9.4 0 a4.7 4.7 0 1 0 -9.4 0zM1257.13 117.5 a4.7 4.7 0 1 0 9.4 0 a4.7 4.7 0 1 0 -9.4 0zM1257.13 164.5 a4.7 4.7 0 1 0 9.4 0 a4.7 4.7 0 1 0 -9.4 0zM1297.84 188 a4.7 4.7 0 1 0 9.4 0 a4.7 4.7 0 1 0 -9.4 0zM1297.84 235 a4.7 4.7 0 1 0 9.4 0 a4.7 4.7 0 1 0 -9.4 0zM1257.13 258.5 a4.7 4.7 0 1 0 9.4 0 a4.7 4.7 0 1 0 -9.4 0zM1257.13 305.5 a4.7 4.7 0 1 0 9.4 0 a4.7 4.7 0 1 0 -9.4 0zM1297.84 329 a4.7 4.7 0 1 0 9.4 0 a4.7 4.7 0 1 0 -9.4 0zM1297.84 376 a4.7 4.7 0 1 0 9.4 0 a4.7 4.7 0 1 0 -9.4 0zM1257.13 399.5 a4.7 4.7 0 1 0 9.4 0 a4.7 4.7 0 1 0 -9.4 0zM1257.13 446.5 a4.7 4.7 0 1 0 9.4 0 a4.7 4.7 0 1 0 -9.4 0zM1297.84 470 a4.7 4.7 0 1 0 9.4 0 a4.7 4.7 0 1 0 -9.4 0zM1297.84 517 a4.7 4.7 0 1 0 9.4 0 a4.7 4.7 0 1 0 -9.4 0zM1257.13 540.5 a4.7 4.7 0 1 0 9.4 0 a4.7 4.7 0 1 0 -9.4 0zM1257.13 587.5 a4.7 4.7 0 1 0 9.4 0 a4.7 4.7 0 1 0 -9.4 0zM1297.84 611 a4.7 4.7 0 1 0 9.4 0 a4.7 4.7 0 1 0 -9.4 0zM1297.84 658 a4.7 4.7 0 1 0 9.4 0 a4.7 4.7 0 1 0 -9.4 0zM1257.13 681.5 a4.7 4.7 0 1 0 9.4 0 a4.7 4.7 0 1 0 -9.4 0zM1257.13 728.5 a4.7 4.7 0 1 0 9.4 0 a4.7 4.7 0 1 0 -9.4 0zM1216.43 752 a4.7 4.7 0 1 0 9.4 0 a4.7 4.7 0 1 0 -9.4 0zM1297.84 -47 a4.7 4.7 0 1 0 9.4 0 a4.7 4.7 0 1 0 -9.4 0zM1338.54 -23.5 a4.7 4.7 0 1 0 9.4 0 a4.7 4.7 0 1 0 -9.4 0zM1338.54 23.5 a4.7 4.7 0 1 0 9.4 0 a4.7 4.7 0 1 0 -9.4 0zM1379.25 47 a4.7 4.7 0 1 0 9.4 0 a4.7 4.7 0 1 0 -9.4 0zM1379.25 94 a4.7 4.7 0 1 0 9.4 0 a4.7 4.7 0 1 0 -9.4 0zM1338.54 117.5 a4.7 4.7 0 1 0 9.4 0 a4.7 4.7 0 1 0 -9.4 0zM1338.54 164.5 a4.7 4.7 0 1 0 9.4 0 a4.7 4.7 0 1 0 -9.4 0zM1379.25 188 a4.7 4.7 0 1 0 9.4 0 a4.7 4.7 0 1 0 -9.4 0zM1379.25 235 a4.7 4.7 0 1 0 9.4 0 a4.7 4.7 0 1 0 -9.4 0zM1338.54 258.5 a4.7 4.7 0 1 0 9.4 0 a4.7 4.7 0 1 0 -9.4 0zM1338.54 305.5 a4.7 4.7 0 1 0 9.4 0 a4.7 4.7 0 1 0 -9.4 0zM1379.25 329 a4.7 4.7 0 1 0 9.4 0 a4.7 4.7 0 1 0 -9.4 0zM1379.25 376 a4.7 4.7 0 1 0 9.4 0 a4.7 4.7 0 1 0 -9.4 0zM1338.54 399.5 a4.7 4.7 0 1 0 9.4 0 a4.7 4.7 0 1 0 -9.4 0zM1338.54 446.5 a4.7 4.7 0 1 0 9.4 0 a4.7 4.7 0 1 0 -9.4 0zM1379.25 470 a4.7 4.7 0 1 0 9.4 0 a4.7 4.7 0 1 0 -9.4 0zM1379.25 517 a4.7 4.7 0 1 0 9.4 0 a4.7 4.7 0 1 0 -9.4 0zM1338.54 540.5 a4.7 4.7 0 1 0 9.4 0 a4.7 4.7 0 1 0 -9.4 0zM1338.54 587.5 a4.7 4.7 0 1 0 9.4 0 a4.7 4.7 0 1 0 -9.4 0zM1379.25 611 a4.7 4.7 0 1 0 9.4 0 a4.7 4.7 0 1 0 -9.4 0zM1379.25 658 a4.7 4.7 0 1 0 9.4 0 a4.7 4.7 0 1 0 -9.4 0zM1338.54 681.5 a4.7 4.7 0 1 0 9.4 0 a4.7 4.7 0 1 0 -9.4 0zM1338.54 728.5 a4.7 4.7 0 1 0 9.4 0 a4.7 4.7 0 1 0 -9.4 0zM1297.84 752 a4.7 4.7 0 1 0 9.4 0 a4.7 4.7 0 1 0 -9.4 0zM1379.25 -47 a4.7 4.7 0 1 0 9.4 0 a4.7 4.7 0 1 0 -9.4 0zM1419.95 -23.5 a4.7 4.7 0 1 0 9.4 0 a4.7 4.7 0 1 0 -9.4 0zM1419.95 23.5 a4.7 4.7 0 1 0 9.4 0 a4.7 4.7 0 1 0 -9.4 0zM1460.66 47 a4.7 4.7 0 1 0 9.4 0 a4.7 4.7 0 1 0 -9.4 0zM1460.66 94 a4.7 4.7 0 1 0 9.4 0 a4.7 4.7 0 1 0 -9.4 0zM1419.95 117.5 a4.7 4.7 0 1 0 9.4 0 a4.7 4.7 0 1 0 -9.4 0zM1419.95 164.5 a4.7 4.7 0 1 0 9.4 0 a4.7 4.7 0 1 0 -9.4 0zM1460.66 188 a4.7 4.7 0 1 0 9.4 0 a4.7 4.7 0 1 0 -9.4 0zM1460.66 235 a4.7 4.7 0 1 0 9.4 0 a4.7 4.7 0 1 0 -9.4 0zM1419.95 258.5 a4.7 4.7 0 1 0 9.4 0 a4.7 4.7 0 1 0 -9.4 0zM1419.95 305.5 a4.7 4.7 0 1 0 9.4 0 a4.7 4.7 0 1 0 -9.4 0zM1460.66 329 a4.7 4.7 0 1 0 9.4 0 a4.7 4.7 0 1 0 -9.4 0zM1460.66 376 a4.7 4.7 0 1 0 9.4 0 a4.7 4.7 0 1 0 -9.4 0zM1419.95 399.5 a4.7 4.7 0 1 0 9.4 0 a4.7 4.7 0 1 0 -9.4 0zM1419.95 446.5 a4.7 4.7 0 1 0 9.4 0 a4.7 4.7 0 1 0 -9.4 0zM1460.66 470 a4.7 4.7 0 1 0 9.4 0 a4.7 4.7 0 1 0 -9.4 0zM1460.66 517 a4.7 4.7 0 1 0 9.4 0 a4.7 4.7 0 1 0 -9.4 0zM1419.95 540.5 a4.7 4.7 0 1 0 9.4 0 a4.7 4.7 0 1 0 -9.4 0zM1419.95 587.5 a4.7 4.7 0 1 0 9.4 0 a4.7 4.7 0 1 0 -9.4 0zM1460.66 611 a4.7 4.7 0 1 0 9.4 0 a4.7 4.7 0 1 0 -9.4 0zM1460.66 658 a4.7 4.7 0 1 0 9.4 0 a4.7 4.7 0 1 0 -9.4 0zM1419.95 681.5 a4.7 4.7 0 1 0 9.4 0 a4.7 4.7 0 1 0 -9.4 0zM1419.95 728.5 a4.7 4.7 0 1 0 9.4 0 a4.7 4.7 0 1 0 -9.4 0zM1379.25 752 a4.7 4.7 0 1 0 9.4 0 a4.7 4.7 0 1 0 -9.4 0z" fill="#03305d"></path><path d="M74.08 215.72L117.39 240.72L117.39 290.72L74.08 315.72L30.78 290.72L30.78 240.72zM30.78 590.72L74.08 615.72L74.08 665.72L30.78 690.72L-12.52 665.72L-12.52 615.72zM117.39 -9.28L160.69 15.72L160.69 65.72L117.39 90.72L74.08 65.72L74.08 15.72zM117.39 440.72L160.69 465.72L160.69 515.72L117.39 540.72L74.08 515.72L74.08 465.72zM160.69 515.72L203.99 540.72L203.99 590.72L160.69 615.72L117.39 590.72L117.39 540.72zM117.39 590.72L160.69 615.72L160.69 665.72L117.39 690.72L74.08 665.72L74.08 615.72zM203.99 140.72L247.29 165.72L247.29 215.72L203.99 240.72L160.69 215.72L160.69 165.72zM203.99 290.72L247.29 315.72L247.29 365.72L203.99 390.72L160.69 365.72L160.69 315.72zM247.29 515.72L290.6 540.72L290.6 590.72L247.29 615.72L203.99 590.72L203.99 540.72zM247.29 665.72L290.6 690.72L290.6 740.72L247.29 765.72L203.99 740.72L203.99 690.72zM290.6 290.72L333.9 315.72L333.9 365.72L290.6 390.72L247.29 365.72L247.29 315.72zM290.6 440.72L333.9 465.72L333.9 515.72L290.6 540.72L247.29 515.72L247.29 465.72zM377.2 -9.28L420.5 15.72L420.5 65.72L377.2 90.72L333.9 65.72L333.9 15.72zM420.5 515.72L463.81 540.72L463.81 590.72L420.5 615.72L377.2 590.72L377.2 540.72zM377.2 590.72L420.5 615.72L420.5 665.72L377.2 690.72L333.9 665.72L333.9 615.72zM420.5 665.72L463.81 690.72L463.81 740.72L420.5 765.72L377.2 740.72L377.2 690.72zM507.11 65.72L550.41 90.72L550.41 140.72L507.11 165.72L463.81 140.72L463.81 90.72zM463.81 140.72L507.11 165.72L507.11 215.72L463.81 240.72L420.5 215.72L420.5 165.72zM507.11 215.72L550.41 240.72L550.41 290.72L507.11 315.72L463.81 290.72L463.81 240.72zM463.81 440.72L507.11 465.72L507.11 515.72L463.81 540.72L420.5 515.72L420.5 465.72zM550.41 -9.28L593.71 15.72L593.71 65.72L550.41 90.72L507.11 65.72L507.11 15.72zM593.71 215.72L637.01 240.72L637.01 290.72L593.71 315.72L550.41 290.72L550.41 240.72zM637.01 140.72L680.32 165.72L680.32 215.72L637.01 240.72L593.71 215.72L593.71 165.72zM637.01 590.72L680.32 615.72L680.32 665.72L637.01 690.72L593.71 665.72L593.71 615.72zM723.62 140.72L766.92 165.72L766.92 215.72L723.62 240.72L680.32 215.72L680.32 165.72zM723.62 290.72L766.92 315.72L766.92 365.72L723.62 390.72L680.32 365.72L680.32 315.72zM766.92 515.72L810.23 540.72L810.23 590.72L766.92 615.72L723.62 590.72L723.62 540.72zM723.62 590.72L766.92 615.72L766.92 665.72L723.62 690.72L680.32 665.72L680.32 615.72zM810.23 -9.28L853.53 15.72L853.53 65.72L810.23 90.72L766.92 65.72L766.92 15.72zM810.23 290.72L853.53 315.72L853.53 365.72L810.23 390.72L766.92 365.72L766.92 315.72zM810.23 590.72L853.53 615.72L853.53 665.72L810.23 690.72L766.92 665.72L766.92 615.72zM896.83 590.72L940.13 615.72L940.13 665.72L896.83 690.72L853.53 665.72L853.53 615.72zM940.13 665.72L983.44 690.72L983.44 740.72L940.13 765.72L896.83 740.72L896.83 690.72zM1026.74 215.72L1070.04 240.72L1070.04 290.72L1026.74 315.72L983.44 290.72L983.44 240.72zM1026.74 365.72L1070.04 390.72L1070.04 440.72L1026.74 465.72L983.44 440.72L983.44 390.72zM983.44 440.72L1026.74 465.72L1026.74 515.72L983.44 540.72L940.13 515.72L940.13 465.72zM983.44 590.72L1026.74 615.72L1026.74 665.72L983.44 690.72L940.13 665.72L940.13 615.72zM1113.34 365.72L1156.64 390.72L1156.64 440.72L1113.34 465.72L1070.04 440.72L1070.04 390.72zM1156.64 -9.28L1199.95 15.72L1199.95 65.72L1156.64 90.72L1113.34 65.72L1113.34 15.72zM1156.64 290.72L1199.95 315.72L1199.95 365.72L1156.64 390.72L1113.34 365.72L1113.34 315.72zM1199.95 365.72L1243.25 390.72L1243.25 440.72L1199.95 465.72L1156.64 440.72L1156.64 390.72zM1156.64 440.72L1199.95 465.72L1199.95 515.72L1156.64 540.72L1113.34 515.72L1113.34 465.72zM1243.25 140.72L1286.55 165.72L1286.55 215.72L1243.25 240.72L1199.95 215.72L1199.95 165.72zM1286.55 665.72L1329.86 690.72L1329.86 740.72L1286.55 765.72L1243.25 740.72L1243.25 690.72zM1329.86 -9.28L1373.16 15.72L1373.16 65.72L1329.86 90.72L1286.55 65.72L1286.55 15.72zM1373.16 65.72L1416.46 90.72L1416.46 140.72L1373.16 165.72L1329.86 140.72L1329.86 90.72zM1373.16 515.72L1416.46 540.72L1416.46 590.72L1373.16 615.72L1329.86 590.72L1329.86 540.72zM1373.16 665.72L1416.46 690.72L1416.46 740.72L1373.16 765.72L1329.86 740.72L1329.86 690.72zM1459.76 65.72L1503.07 90.72L1503.07 140.72L1459.76 165.72L1416.46 140.72L1416.46 90.72zM1459.76 365.72L1503.07 390.72L1503.07 440.72L1459.76 465.72L1416.46 440.72L1416.46 390.72zM1416.46 590.72L1459.76 615.72L1459.76 665.72L1416.46 690.72L1373.16 665.72L1373.16 615.72z" stroke="rgba(6, 80, 156, 0.93)" stroke-width="2"></path></g><defs><mask id="SvgjsMask1170"><rect width="1440" height="702" fill="#ffffff"></rect></mask><linearGradient x1="12.81%" y1="-26.28%" x2="87.19%" y2="126.28%" gradientUnits="userSpaceOnUse" id="SvgjsLinearGradient1171"><stop stop-color="#0e2a47" offset="0"></stop><stop stop-color="rgba(29, 102, 195, 1)" offset="1"></stop></linearGradient></defs></svg>